<?xml version="1.0" encoding="UTF-8"?>
<svg id="Layer_1" data-name="Layer 1" xmlns="http://www.w3.org/2000/svg" viewBox="0 0 1020.47 1020.8">
  <defs>
    <style>
      .cls-1 {
        fill: #849ab6;
      }

      .cls-2 {
        fill: #2e3d5e;
      }
    </style>
  </defs>
  <g>
    <path class="cls-1" d="M711.51,685.25c-2.78,0-5.59-.52-8.28-1.61l-85.67-34.68c-11.31-4.58-16.76-17.45-12.19-28.76,4.58-11.31,17.45-16.76,28.76-12.18l29.98,12.14c-.09-.31-.18-.62-.27-.93-6.75-23.57-5.53-44.51,3.51-60.57,8.27-14.68,17.64-21.78,27.56-29.31,4.89-3.71,9.95-7.54,16.02-13.07,20.21-18.38,31.23-70.19,1.8-106.4-24.5-30.15-67.97-38.89-103.36-20.79-10.86,5.55-24.16,1.26-29.72-9.6-5.55-10.86-1.26-24.16,9.6-29.72,26.1-13.35,56.29-17.47,85-11.59,28.72,5.88,54.55,21.45,72.74,43.84,20.5,25.22,30.25,57.7,27.46,91.45-2.5,30.29-15.15,58.51-33.81,75.49-7.53,6.85-13.92,11.69-19.05,15.58-8.24,6.25-12,9.1-15.77,15.8-2.98,5.3-2.81,15.29,.47,26.73,3.97,13.86,11.99,28.94,22.6,42.48,6.17,7.87,6.27,18.91,.26,26.9-4.27,5.67-10.87,8.8-17.65,8.8Z"/>
    <circle class="cls-1" cx="777.14" cy="662.6" r="22.65"/>
    <circle class="cls-1" cx="837.24" cy="662.6" r="22.65"/>
  </g>
  <g>
    <g>
      <path class="cls-2" d="M247.26,572.3h30.71c2.95,0,4.61-1.35,5.48-2.47,1.05-1.37,1.61-2.98,1.61-4.68s-.54-3.29-1.61-4.68c-.87-1.13-2.53-2.47-5.48-2.47h-13.01c-1.54,0-2.78-.53-3.92-1.67-1.14-1.14-1.67-2.42-1.67-4.03,0-1.41,.29-2.49,.89-3.31,.67-.9,1.45-1.53,2.39-1.93,.97-.4,2-.52,3.14-.38,1.09,.14,2.03,.54,2.83,1.22,2.1,1.78,4.17,1.92,5.53,1.73,1.73-.25,3.2-.96,4.36-2.13,1.21-1.21,1.91-2.79,2.04-4.6,.1-1.45-.26-3.58-2.56-5.56-2.97-2.53-6.41-4.04-10.22-4.48-3.69-.42-7.23,.01-10.52,1.29-3.37,1.31-6.23,3.51-8.52,6.54-2.36,3.12-3.56,7.02-3.56,11.59,0,2.01,.28,3.94,.84,5.78-2.2,.31-3.51,1.43-4.25,2.39-1.07,1.38-1.61,2.96-1.61,4.68s.56,3.31,1.61,4.67c.87,1.13,2.53,2.48,5.49,2.48Z"/>
      <path class="cls-2" d="M418.14,633.49c.12,0,.23-.02,.34-.03,4.83-.57,9.49-1.83,13.9-3.76,6.17-2.7,11.68-6.39,16.4-10.97,4.74-4.6,8.54-10.08,11.3-16.29,2.78-6.26,4.19-13.08,4.19-20.24v-35.5c0-5.78-2.52-9.07-4.65-10.83-2.79-2.29-6-3.46-9.52-3.46s-6.73,1.16-9.52,3.46c-2.12,1.74-4.64,5.04-4.64,10.82v35.5c0,3.33-.61,6.46-1.81,9.31-1.2,2.85-2.9,5.34-5.02,7.41-2.19,2.12-4.73,3.81-7.55,5.03-2.72,1.18-5.77,1.78-9.02,1.79-3.3-.01-6.4-.62-9.21-1.81-2.89-1.22-5.45-2.91-7.63-5.02-2.13-2.07-3.82-4.56-5.02-7.41-1.2-2.84-1.81-5.97-1.81-9.31v-85.22c0-5.78-2.52-9.07-4.65-10.83-2.79-2.29-6-3.46-9.52-3.46s-6.73,1.16-9.52,3.46c-2.12,1.74-4.64,5.04-4.64,10.82v85.22c0,3.33-.61,6.46-1.81,9.31-1.2,2.84-2.89,5.34-5.02,7.41-2.18,2.12-4.72,3.81-7.54,5.03-2.79,1.21-5.78,1.79-9.14,1.79H167.79c-7.55,0-14.09,5.78-14.47,13.32-.22,4.26,1.45,8.29,4.62,11.17,2.67,2.42,6.23,3.62,9.84,3.62h169.29c8.36,0,16.28-1.91,23.54-5.66,5.34-2.76,10.06-6.27,14.09-10.46,4.06,4.19,8.79,7.7,14.14,10.46,5.54,2.86,11.52,4.65,17.85,5.33h0c3.81,.22,7.63,.22,11.43,0h.03Z"/>
      <path class="cls-2" d="M438.31,653.19c-4.24,0-8.12,1.63-11.19,4.71-3.09,3.08-4.72,6.95-4.72,11.2s1.63,8.34,4.71,11.43c3.08,3.08,6.95,4.71,11.19,4.71s7.81-1.56,11.02-4.66c3.2-3.09,4.89-7.07,4.89-11.48s-1.69-8.17-4.89-11.25c-3.19-3.09-6.9-4.65-11.02-4.65Z"/>
      <path class="cls-2" d="M404.44,653.19c-4.24,0-8.12,1.63-11.19,4.71-3.09,3.08-4.72,6.95-4.72,11.2s1.63,8.34,4.71,11.43c3.08,3.08,6.95,4.71,11.19,4.71s8.1-1.63,11.2-4.72c3.08-3.09,4.71-7.04,4.71-11.42s-1.63-8.11-4.71-11.19c-3.08-3.08-6.95-4.71-11.19-4.71Z"/>
      <path class="cls-2" d="M503.72,486.15h0c-2.79-2.3-6-3.46-9.52-3.46s-6.73,1.16-9.52,3.46c-2.12,1.74-4.64,5.04-4.64,10.82v122.57c0,5.79,2.53,9.09,4.65,10.82,2.79,2.29,5.99,3.46,9.52,3.46s6.72-1.16,9.52-3.46c2.12-1.74,4.65-5.03,4.65-10.82v-122.57c0-5.78-2.52-9.07-4.64-10.82Z"/>
      <path class="cls-2" d="M547.56,535.87h0c-2.79-2.3-6-3.46-9.52-3.46s-6.73,1.16-9.52,3.46c-2.12,1.74-4.64,5.04-4.64,10.82v87.24c0,14.8-5.96,21.92-19.33,23.09h-.08c-5.43,.58-8.48,3.21-10.07,5.32-2.22,2.91-3.22,6.19-2.99,9.74,.23,3.46,1.56,6.56,3.97,9.2,1.68,1.84,4.64,3.9,9.46,3.9,.55,0,1.13-.03,1.74-.09,14.08-1.03,25.34-6.15,33.47-15.22,8.08-9.03,12.18-21.12,12.18-35.94v-87.24c0-5.78-2.52-9.07-4.64-10.82Z"/>
    </g>
    <g>
      <path class="cls-1" d="M176.53,656.41c-1.04-1.04-2.36-1.86-3.92-2.43-1.54-.57-3.31-.85-5.27-.85h-11.18c-.72,0-1.37,.27-1.88,.78-.51,.51-.78,1.18-.78,1.92v26.71c0,.75,.27,1.41,.78,1.92,.51,.51,1.16,.78,1.88,.78s1.41-.27,1.92-.78c.51-.51,.78-1.18,.78-1.92v-9.13h7.1l8.12,10.55c.26,.34,.57,.63,.91,.86,.42,.28,.91,.43,1.44,.43,.67,0,1.31-.26,1.84-.76,.55-.51,.85-1.17,.85-1.91,0-.64-.26-1.26-.78-1.87l-6.47-8.34c.67-.21,1.32-.45,1.92-.75,1.08-.52,2.03-1.19,2.81-2,.78-.81,1.4-1.77,1.84-2.85,.45-1.09,.67-2.32,.67-3.67v-.09c0-1.32-.23-2.55-.67-3.66-.45-1.12-1.09-2.11-1.93-2.94Zm-2.78,6.73v.09c0,.81-.16,1.52-.47,2.13-.32,.63-.75,1.15-1.32,1.59-.58,.45-1.3,.8-2.12,1.05-.84,.26-1.78,.38-2.79,.38h-8.19v-10.14h8.23c2.18,0,3.87,.45,5.03,1.35,1.09,.85,1.62,2.01,1.62,3.55Z"/>
      <path class="cls-1" d="M214.86,654.88c-.55-1.35-1.62-2.1-3.01-2.1h-.17c-.77,0-1.41,.2-1.92,.6-.45,.35-.83,.85-1.13,1.48l-12.13,26.52c-.21,.42-.31,.86-.31,1.33,0,.69,.26,1.31,.74,1.8s1.11,.74,1.8,.74c1.17,0,2.07-.62,2.54-1.76l2.85-6.36h15.12l2.85,6.28c.2,.48,.51,.9,.91,1.24,.46,.39,1.04,.6,1.67,.6,.72,0,1.36-.26,1.86-.76,.5-.5,.76-1.14,.76-1.86,0-.36-.09-.77-.29-1.24l-12.14-26.5Zm2.16,17.17h-10.67l5.34-11.87,5.34,11.87Z"/>
      <path class="cls-1" d="M308.51,654.88c-.55-1.35-1.62-2.1-3.01-2.1h-.17c-.77,0-1.41,.2-1.92,.6-.45,.35-.83,.85-1.13,1.48l-12.13,26.52c-.21,.42-.31,.86-.31,1.33,0,.69,.26,1.31,.74,1.8s1.11,.74,1.8,.74c1.17,0,2.07-.62,2.54-1.76l2.85-6.36h15.12l2.85,6.28c.2,.48,.51,.9,.91,1.24,.46,.39,1.04,.6,1.67,.6,.72,0,1.36-.26,1.86-.76,.5-.5,.76-1.14,.76-1.86,0-.36-.09-.77-.29-1.24l-12.14-26.5Zm2.16,17.17h-10.67l5.34-11.87,5.34,11.87Z"/>
      <path class="cls-1" d="M270.11,652.91c-.6,0-1.12,.17-1.53,.5-.3,.24-.58,.55-.86,.94l-9.12,13.07-9.03-13.05v-.02c-.3-.39-.6-.71-.92-.95-.42-.32-.93-.48-1.52-.48-.74,0-1.4,.27-1.93,.77-.54,.51-.82,1.17-.82,1.9,0,.35,.06,.68,.17,.97,.1,.25,.22,.5,.38,.73l10.94,15.32v9.94c0,.74,.27,1.41,.77,1.92,.51,.52,1.17,.79,1.91,.79s1.4-.27,1.91-.79c.51-.51,.77-1.18,.77-1.92v-10.02l10.88-15.12,.02-.03c.14-.21,.27-.45,.39-.71,.16-.35,.24-.71,.24-1.08,0-.71-.26-1.35-.75-1.87-.5-.52-1.16-.8-1.92-.8Z"/>
      <path class="cls-1" d="M363.85,681.46c-.11-.24-.26-.49-.43-.74l-.02-.03-10.82-13.34,9.96-9.88c.7-.7,.85-1.42,.85-1.9,0-.67-.25-1.3-.73-1.83-.5-.55-1.16-.84-1.89-.84-.46,0-.87,.1-1.22,.3-.26,.15-.51,.33-.75,.54l-.03,.03-15.37,15.75v-13.91c0-.74-.27-1.41-.78-1.92-.51-.51-1.18-.78-1.92-.78s-1.37,.27-1.88,.78c-.51,.51-.78,1.18-.78,1.92v26.92c0,.75,.27,1.41,.78,1.92,.51,.51,1.16,.78,1.88,.78s1.41-.27,1.92-.78c.51-.51,.78-1.18,.78-1.92v-6.08l5.37-5.37,10.42,12.98c.22,.33,.5,.61,.84,.82,.39,.24,.84,.37,1.34,.37,.75,0,1.42-.28,1.94-.82,.5-.53,.77-1.18,.77-1.89,0-.4-.07-.76-.22-1.08Z"/>
    </g>
  </g>
</svg>